<svg xmlns="http://www.w3.org/2000/svg" width="256" height="256" viewBox="0 0 100 100"><rect width="100" height="100" rx="20" fill="#0f0c2e"></rect><path fill="#9f02ee" d="M25.47 22.55L25.47 22.55Q25.93 22.37 26.87 22.15Q27.81 21.92 28.80 21.92L28.80 21.92Q32.77 21.92 32.77 25.25L32.77 25.25L32.77 63.77Q32.77 67.82 31.59 70.56Q30.43 73.31 28.40 74.98Q26.38 76.64 23.72 77.36Q21.06 78.08 18.18 78.08L18.18 78.08Q13.05 78.08 10.71 76.87Q8.38 75.65 8.38 73.67L8.38 73.67Q8.38 72.41 8.91 71.51Q9.46 70.61 9.90 70.16L9.90 70.16Q11.25 70.79 13.14 71.33Q15.04 71.87 17.11 71.87L17.11 71.87Q21.16 71.87 23.31 69.94Q25.47 68 25.47 63.41L25.47 63.41L25.47 22.55ZM91.63 76.91L91.63 76.91Q91.08 77.09 90.19 77.31Q89.28 77.54 88.20 77.54L88.20 77.54Q84.25 77.54 84.25 74.21L84.25 74.21L84.25 52.43L56.16 52.43L56.16 76.91Q55.63 77.09 54.72 77.31Q53.82 77.54 52.74 77.54L52.74 77.54Q48.78 77.54 48.78 74.21L48.78 74.21L48.78 22.55Q49.23 22.37 50.18 22.15Q51.13 21.92 52.20 21.92L52.20 21.92Q56.16 21.92 56.16 25.25L56.16 25.25L56.16 46.31L84.25 46.31L84.25 22.55Q84.69 22.37 85.64 22.15Q86.58 21.92 87.66 21.92L87.66 21.92Q91.63 21.92 91.63 25.25L91.63 25.25L91.63 76.91Z"></path></svg>